<svg width="212" height="60" viewBox="0 0 212 60" fill="none" xmlns="http://www.w3.org/2000/svg">
<g filter="url(#filter0_d_871_381)">
<rect x="2" y="1" width="60" height="54" rx="12" fill="#894AD1"/>
</g>
<path d="M9.27557 41V14.8182H19.6051C21.5824 14.8182 23.2699 15.1719 24.6676 15.8793C26.0739 16.5781 27.1435 17.571 27.8764 18.858C28.6179 20.1364 28.9886 21.6406 28.9886 23.3707C28.9886 25.1094 28.6136 26.6051 27.8636 27.858C27.1136 29.1023 26.027 30.0568 24.6037 30.7216C23.1889 31.3864 21.4759 31.7188 19.4645 31.7188H12.5483V27.2699H18.5696C19.6264 27.2699 20.5043 27.125 21.2031 26.8352C21.902 26.5455 22.4219 26.1108 22.7628 25.5312C23.1122 24.9517 23.2869 24.2315 23.2869 23.3707C23.2869 22.5014 23.1122 21.7685 22.7628 21.1719C22.4219 20.5753 21.8977 20.1236 21.1903 19.8168C20.4915 19.5014 19.6094 19.3438 18.544 19.3438H14.8111V41H9.27557ZM23.4148 29.0852L29.9219 41H23.8111L17.4446 29.0852H23.4148ZM32.9006 41V14.8182H38.4361V25.6207H49.6733V14.8182H55.196V41H49.6733V30.1847H38.4361V41H32.9006Z" fill="white"/>
<path d="M9.27557 41V14.8182H19.6051C21.5824 14.8182 23.2699 15.1719 24.6676 15.8793C26.0739 16.5781 27.1435 17.571 27.8764 18.858C28.6179 20.1364 28.9886 21.6406 28.9886 23.3707C28.9886 25.1094 28.6136 26.6051 27.8636 27.858C27.1136 29.1023 26.027 30.0568 24.6037 30.7216C23.1889 31.3864 21.4759 31.7188 19.4645 31.7188H12.5483V27.2699H18.5696C19.6264 27.2699 20.5043 27.125 21.2031 26.8352C21.902 26.5455 22.4219 26.1108 22.7628 25.5312C23.1122 24.9517 23.2869 24.2315 23.2869 23.3707C23.2869 22.5014 23.1122 21.7685 22.7628 21.1719C22.4219 20.5753 21.8977 20.1236 21.1903 19.8168C20.4915 19.5014 19.6094 19.3438 18.544 19.3438H14.8111V41H9.27557ZM23.4148 29.0852L29.9219 41H23.8111L17.4446 29.0852H23.4148ZM32.9006 41V14.8182H38.4361V25.6207H49.6733V14.8182H55.196V41H49.6733V30.1847H38.4361V41H32.9006Z" fill="white"/>
<path d="M81.6761 25.9091V31.2273H69.4034V25.9091H81.6761ZM85.8757 39V19.3636H92.5746V23.0966H92.7791C93.1882 21.8693 93.8871 20.8977 94.8757 20.1818C95.8643 19.4659 97.0405 19.108 98.4041 19.108C99.7848 19.108 100.974 19.4744 101.971 20.2074C102.968 20.9318 103.569 21.8949 103.773 23.0966H103.978C104.31 21.8949 105.018 20.9318 106.1 20.2074C107.183 19.4744 108.452 19.108 109.91 19.108C111.793 19.108 113.319 19.7131 114.487 20.9233C115.663 22.1335 116.251 23.7443 116.251 25.7557V39H109.194V27.5455C109.194 26.6847 108.977 26.0114 108.542 25.5256C108.107 25.0312 107.523 24.7841 106.79 24.7841C106.066 24.7841 105.491 25.0312 105.065 25.5256C104.647 26.0114 104.438 26.6847 104.438 27.5455V39H97.6882V27.5455C97.6882 26.6847 97.4709 26.0114 97.0362 25.5256C96.6016 25.0312 96.0178 24.7841 95.2848 24.7841C94.799 24.7841 94.3814 24.8949 94.032 25.1165C93.6825 25.3381 93.4098 25.6577 93.2138 26.0753C93.0263 26.4844 92.9325 26.9744 92.9325 27.5455V39H85.8757ZM148.304 27.9545V39H141.247V19.3636H147.946V23.0966H148.15C148.576 21.8523 149.326 20.8764 150.4 20.169C151.483 19.4616 152.744 19.108 154.184 19.108C155.574 19.108 156.779 19.4276 157.802 20.0668C158.833 20.6974 159.63 21.5668 160.193 22.6747C160.764 23.7827 161.045 25.0483 161.037 26.4716V39H153.98V27.9545C153.988 26.983 153.741 26.2202 153.238 25.6662C152.744 25.1122 152.054 24.8352 151.167 24.8352C150.588 24.8352 150.081 24.9631 149.646 25.2188C149.22 25.4659 148.892 25.8239 148.662 26.2926C148.431 26.7528 148.312 27.3068 148.304 27.9545ZM171.628 39.2557C170.23 39.2557 168.944 38.8892 167.767 38.1562C166.6 37.4233 165.662 36.3111 164.955 34.8196C164.256 33.3281 163.907 31.4489 163.907 29.1818C163.907 26.8125 164.273 24.8864 165.006 23.4034C165.748 21.9205 166.702 20.8338 167.87 20.1435C169.046 19.4531 170.282 19.108 171.577 19.108C172.549 19.108 173.401 19.2784 174.134 19.6193C174.867 19.9517 175.48 20.3991 175.975 20.9616C176.469 21.5156 176.844 22.125 177.1 22.7898H177.202V12.8182H184.259V39H177.253V35.7784H177.1C176.827 36.4432 176.435 37.0398 175.924 37.5682C175.421 38.0881 174.807 38.5014 174.083 38.8082C173.367 39.1065 172.549 39.2557 171.628 39.2557ZM174.236 33.8352C174.884 33.8352 175.438 33.6477 175.898 33.2727C176.367 32.8892 176.725 32.3523 176.972 31.6619C177.228 30.9631 177.355 30.1364 177.355 29.1818C177.355 28.2102 177.228 27.3793 176.972 26.6889C176.725 25.9901 176.367 25.4574 175.898 25.0909C175.438 24.7159 174.884 24.5284 174.236 24.5284C173.588 24.5284 173.034 24.7159 172.574 25.0909C172.123 25.4574 171.773 25.9901 171.526 26.6889C171.287 27.3793 171.168 28.2102 171.168 29.1818C171.168 30.1534 171.287 30.9886 171.526 31.6875C171.773 32.3778 172.123 32.9105 172.574 33.2855C173.034 33.652 173.588 33.8352 174.236 33.8352Z" fill="black"/>
<path d="M134.878 37.6376C133.419 39.0836 131.921 39.9985 130.384 40.3825C128.846 40.7545 127.348 40.6015 125.889 39.9235C124.424 39.2395 123.075 38.0396 121.84 36.3237C120.641 34.6558 119.875 32.9189 119.542 31.1131C119.21 29.2952 119.312 27.5253 119.851 25.8034C120.384 24.0755 121.349 22.5186 122.748 21.1327C123.74 20.1487 124.775 19.4288 125.853 18.9728C126.93 18.5168 128.026 18.3428 129.14 18.4508C130.248 18.5528 131.334 18.9518 132.399 19.6478C133.465 20.3437 134.473 21.3547 135.423 22.6806L136.358 23.9495L124.246 35.9547L122.076 32.9939L130.066 25.0744C129.666 24.5345 129.206 24.1565 128.686 23.9405C128.165 23.7245 127.633 23.6825 127.088 23.8145C126.543 23.9345 126.028 24.2345 125.544 24.7144C125.054 25.2004 124.709 25.7704 124.509 26.4243C124.309 27.0663 124.252 27.7233 124.337 28.3952C124.421 29.0672 124.657 29.6851 125.045 30.2491L127.206 33.3449C127.696 34.0229 128.226 34.4938 128.795 34.7578C129.364 35.0218 129.945 35.0818 130.538 34.9378C131.125 34.7878 131.709 34.4248 132.291 33.8489C132.678 33.4649 132.99 33.0539 133.226 32.616C133.456 32.172 133.598 31.713 133.652 31.239C133.707 30.7531 133.665 30.2731 133.525 29.7991L137.693 25.9024C138.28 27.1323 138.571 28.4222 138.565 29.7721C138.553 31.1161 138.241 32.463 137.629 33.8129C137.018 35.1508 136.101 36.4257 134.878 37.6376Z" fill="black"/>
<circle cx="199.5" cy="27.5" r="12" fill="white" stroke="#9747FF"/>
<circle cx="199.5" cy="27.5" r="9.375" fill="#9747FF"/>
<circle cx="204.844" cy="21.9062" r="3" fill="white"/>
<defs>
<filter id="filter0_d_871_381" x="0" y="0" width="66" height="60" filterUnits="userSpaceOnUse" color-interpolation-filters="sRGB">
<feFlood flood-opacity="0" result="BackgroundImageFix"/>
<feColorMatrix in="SourceAlpha" type="matrix" values="0 0 0 0 0 0 0 0 0 0 0 0 0 0 0 0 0 0 127 0" result="hardAlpha"/>
<feMorphology radius="1" operator="dilate" in="SourceAlpha" result="effect1_dropShadow_871_381"/>
<feOffset dx="1" dy="2"/>
<feGaussianBlur stdDeviation="1"/>
<feComposite in2="hardAlpha" operator="out"/>
<feColorMatrix type="matrix" values="0 0 0 0 0 0 0 0 0 0 0 0 0 0 0 0 0 0 0.12 0"/>
<feBlend mode="normal" in2="BackgroundImageFix" result="effect1_dropShadow_871_381"/>
<feBlend mode="normal" in="SourceGraphic" in2="effect1_dropShadow_871_381" result="shape"/>
</filter>
</defs>
</svg>
