<svg width="224" height="48" viewBox="0 0 224 48" fill="none" xmlns="http://www.w3.org/2000/svg">
<path d="M1.875 39V9.90909H14.4318C16.5909 9.90909 18.4801 10.3021 20.0994 11.0881C21.7188 11.8741 22.9782 13.0057 23.8778 14.483C24.7775 15.9602 25.2273 17.7311 25.2273 19.7955C25.2273 21.8788 24.7633 23.6354 23.8352 25.0653C22.9167 26.4953 21.6241 27.5748 19.9574 28.304C18.3002 29.0331 16.3636 29.3977 14.1477 29.3977H6.64773V23.2614H12.5568C13.4848 23.2614 14.2756 23.1477 14.929 22.9205C15.5919 22.6837 16.0985 22.3097 16.4489 21.7983C16.8087 21.2869 16.9886 20.6193 16.9886 19.7955C16.9886 18.9621 16.8087 18.285 16.4489 17.7642C16.0985 17.2339 15.5919 16.8456 14.929 16.5994C14.2756 16.3437 13.4848 16.2159 12.5568 16.2159H9.77273V39H1.875ZM18.9205 25.6477L26.1932 39H17.6136L10.5114 25.6477H18.9205ZM28.5938 39V9.90909H36.4915V21.2727H46.946V9.90909H54.8438V39H46.946V27.6364H36.4915V39H28.5938ZM73.0256 24.4545V30.3636H59.3892V24.4545H73.0256ZM77.6918 39V17.1818H85.1349V21.3295H85.3622C85.8168 19.9659 86.5933 18.8864 87.6918 18.0909C88.7902 17.2955 90.0971 16.8977 91.6122 16.8977C93.1463 16.8977 94.4673 17.3049 95.5753 18.1193C96.6832 18.9242 97.3509 19.9943 97.5781 21.3295H97.8054C98.1747 19.9943 98.9607 18.9242 100.163 18.1193C101.366 17.3049 102.777 16.8977 104.396 16.8977C106.489 16.8977 108.184 17.5701 109.482 18.9148C110.788 20.2595 111.442 22.0492 111.442 24.2841V39H103.601V26.2727C103.601 25.3163 103.359 24.5682 102.876 24.0284C102.393 23.4792 101.745 23.2045 100.93 23.2045C100.125 23.2045 99.4863 23.4792 99.0128 24.0284C98.5488 24.5682 98.3168 25.3163 98.3168 26.2727V39H90.8168V26.2727C90.8168 25.3163 90.5753 24.5682 90.0923 24.0284C89.6094 23.4792 88.9607 23.2045 88.1463 23.2045C87.6065 23.2045 87.1425 23.3277 86.7543 23.5739C86.366 23.8201 86.063 24.1752 85.8452 24.6392C85.6368 25.0937 85.5327 25.6383 85.5327 26.2727V39H77.6918ZM148.931 26.7273V39H141.09V17.1818H148.533V21.3295H148.761C149.234 19.947 150.067 18.8627 151.261 18.0767C152.463 17.2907 153.865 16.8977 155.465 16.8977C157.009 16.8977 158.349 17.2528 159.485 17.9631C160.631 18.6638 161.516 19.6297 162.141 20.8608C162.776 22.0919 163.088 23.4981 163.079 25.0795V39H155.238V26.7273C155.247 25.6477 154.973 24.8002 154.414 24.1847C153.865 23.5691 153.098 23.2614 152.113 23.2614C151.469 23.2614 150.906 23.4034 150.423 23.6875C149.949 23.9621 149.585 24.3598 149.329 24.8807C149.073 25.392 148.941 26.0076 148.931 26.7273ZM174.847 39.2841C173.294 39.2841 171.864 38.8769 170.558 38.0625C169.26 37.2481 168.219 36.0123 167.433 34.3551C166.656 32.6979 166.268 30.6098 166.268 28.0909C166.268 25.4583 166.675 23.3182 167.489 21.6705C168.313 20.0227 169.374 18.8153 170.671 18.0483C171.978 17.2812 173.351 16.8977 174.79 16.8977C175.87 16.8977 176.817 17.0871 177.631 17.4659C178.446 17.8352 179.128 18.3324 179.677 18.9574C180.226 19.5729 180.643 20.25 180.927 20.9886H181.04V9.90909H188.881V39H181.097V35.4205H180.927C180.624 36.1591 180.188 36.822 179.62 37.4091C179.061 37.9867 178.379 38.446 177.575 38.7869C176.779 39.1184 175.87 39.2841 174.847 39.2841ZM177.745 33.2614C178.465 33.2614 179.08 33.053 179.592 32.6364C180.112 32.2102 180.51 31.6136 180.785 30.8466C181.069 30.0701 181.211 29.1515 181.211 28.0909C181.211 27.0114 181.069 26.0881 180.785 25.321C180.51 24.5445 180.112 23.9527 179.592 23.5455C179.08 23.1288 178.465 22.9205 177.745 22.9205C177.025 22.9205 176.41 23.1288 175.898 23.5455C175.397 23.9527 175.008 24.5445 174.734 25.321C174.469 26.0881 174.336 27.0114 174.336 28.0909C174.336 29.1705 174.469 30.0985 174.734 30.875C175.008 31.642 175.397 32.2339 175.898 32.6506C176.41 33.0578 177.025 33.2614 177.745 33.2614Z" fill="black"/>
<path d="M132.24 35.6891C130.626 37.3029 128.969 38.3241 127.268 38.7526C125.567 39.1678 123.91 38.997 122.296 38.2404C120.676 37.477 119.183 36.1378 117.817 34.2227C116.491 32.3612 115.644 30.4227 115.276 28.4072C114.907 26.3782 115.021 24.4029 115.617 22.4811C116.206 20.5526 117.274 18.815 118.821 17.2682C119.919 16.1701 121.064 15.3665 122.256 14.8576C123.448 14.3487 124.66 14.1545 125.892 14.2751C127.118 14.3889 128.32 14.8342 129.498 15.6109C130.677 16.3877 131.791 17.516 132.843 18.9958L133.877 20.412L120.478 33.8109L118.078 30.5064L126.917 21.6675C126.475 21.0649 125.966 20.643 125.39 20.402C124.814 20.1609 124.225 20.114 123.622 20.2614C123.02 20.3953 122.45 20.7301 121.915 21.2658C121.372 21.8082 120.991 22.4443 120.77 23.1742C120.549 23.8906 120.485 24.6239 120.579 25.3738C120.673 26.1238 120.934 26.8135 121.362 27.4429L123.753 30.8981C124.295 31.6548 124.881 32.1804 125.511 32.475C126.14 32.7697 126.783 32.8366 127.439 32.6759C128.089 32.5085 128.735 32.1034 129.377 31.4606C129.806 31.032 130.151 30.5733 130.412 30.0845C130.666 29.589 130.824 29.0768 130.884 28.5478C130.944 28.0054 130.898 27.4697 130.744 26.9407L135.354 22.5916C136.003 23.9643 136.325 25.404 136.318 26.9106C136.305 28.4105 135.96 29.9138 135.283 31.4204C134.607 32.9136 133.593 34.3365 132.24 35.6891Z" fill="black"/>
<circle cx="205" cy="25" r="13.25" transform="rotate(62 205 25)" fill="#FFFCFC" stroke="#9747FF" stroke-width="1.5"/>
<ellipse cx="204.325" cy="25.3588" rx="10.9565" ry="10.1921" transform="rotate(62 204.325 25.3588)" fill="#894AD1"/>
<ellipse cx="5.38183" cy="3.16636" rx="5.38183" ry="3.16636" transform="matrix(0.933206 0.359342 -0.2912 0.956662 203.303 13.4932)" fill="#FFFBFB"/>
</svg>
