<svg width="213" height="60" viewBox="0 0 213 60" fill="none" xmlns="http://www.w3.org/2000/svg">
<circle cx="200.5" cy="28.5" r="12" fill="white" stroke="#9747FF"/>
<circle cx="200.5" cy="28.5" r="9.375" fill="#9747FF"/>
<circle cx="206.359" cy="23.4219" r="3.51562" fill="white"/>
<path d="M143.932 29.5426V39.6649H137V21.9162H143.592V25.1748H143.833C144.315 24.0886 145.137 23.2374 146.299 22.6211C147.462 21.9971 148.846 21.6851 150.453 21.6851C151.984 21.6851 153.312 21.9663 154.437 22.5286C155.571 23.0833 156.449 23.8613 157.073 24.8628C157.706 25.8565 158.018 27.0197 158.009 28.3524V39.6649H151.077V29.4617C151.086 28.4757 150.779 27.7053 150.155 27.1507C149.541 26.5961 148.686 26.3187 147.589 26.3187C146.862 26.3187 146.219 26.4497 145.662 26.7116C145.113 26.9658 144.688 27.3317 144.386 27.8093C144.093 28.287 143.942 28.8647 143.932 29.5426Z" fill="black"/>
<path d="M170.253 39.9191C168.647 39.9191 167.187 39.5802 165.873 38.9023C164.559 38.2244 163.51 37.2075 162.726 35.8517C161.942 34.4959 161.549 32.8127 161.549 30.8021C161.549 28.7145 161.956 26.9966 162.768 25.6485C163.581 24.3004 164.644 23.3028 165.958 22.6558C167.281 22.0087 168.703 21.6851 170.225 21.6851C171.369 21.6851 172.347 21.8469 173.159 22.1704C173.972 22.4863 174.643 22.8946 175.172 23.3953C175.702 23.896 176.103 24.416 176.377 24.9552H176.519V16H183.451V39.6649H176.59V36.7877H176.377C176.084 37.3346 175.669 37.8469 175.13 38.3245C174.591 38.8021 173.916 39.1873 173.103 39.48C172.299 39.7727 171.35 39.9191 170.253 39.9191ZM172.663 35.5166C173.504 35.5166 174.223 35.324 174.818 34.9389C175.413 34.546 175.872 33.9952 176.193 33.2865C176.514 32.5778 176.675 31.7458 176.675 30.7906C176.675 29.8199 176.514 28.9841 176.193 28.2831C175.881 27.5821 175.423 27.0429 174.818 26.6654C174.223 26.2879 173.504 26.0992 172.663 26.0992C171.803 26.0992 171.076 26.2918 170.48 26.6769C169.885 27.0621 169.431 27.6052 169.119 28.3062C168.817 29.0072 168.666 29.8353 168.666 30.7906C168.666 31.7458 168.822 32.5778 169.133 33.2865C169.445 33.9952 169.894 34.546 170.48 34.9389C171.076 35.324 171.803 35.5166 172.663 35.5166Z" fill="black"/>
<path d="M84 39V18.2699H89.6436V22.0758H89.8499C90.2383 20.8162 90.8937 19.822 91.8161 19.0932C92.7385 18.3644 93.8389 18 95.1173 18C96.4119 18 97.5204 18.3689 98.4428 19.1067C99.3652 19.8445 99.9518 20.8342 100.203 22.0758H100.397C100.745 20.8432 101.424 19.858 102.436 19.1202C103.447 18.3734 104.641 18 106.016 18C107.78 18 109.212 18.6298 110.313 19.8895C111.413 21.1401 111.963 22.8586 111.963 25.045V39H106.028V26.5566C106.028 25.5218 105.79 24.7346 105.312 24.1947C104.835 23.6459 104.216 23.3715 103.455 23.3715C102.638 23.3715 101.995 23.6684 101.526 24.2622C101.064 24.847 100.834 25.6343 100.834 26.624V39H95.1295V26.4891C95.1295 25.5263 94.8948 24.7661 94.4255 24.2082C93.9562 23.6504 93.3373 23.3715 92.5686 23.3715C92.0508 23.3715 91.5936 23.5109 91.1971 23.7898C90.8007 24.0598 90.4892 24.4467 90.2626 24.9505C90.0441 25.4544 89.9349 26.0482 89.9349 26.732V39H84Z" fill="black"/>
<path d="M129.851 39.2575C128.072 40.2845 126.334 40.8202 124.638 40.8648C122.944 40.8977 121.374 40.4612 119.926 39.5554C118.481 38.6379 117.236 37.275 116.192 35.4667C115.178 33.71 114.638 31.9745 114.574 30.2601C114.505 28.5384 114.89 26.9478 115.731 25.4884C116.567 24.0216 117.841 22.7939 119.553 21.8053C120.764 21.1064 121.979 20.6554 123.201 20.4523C124.422 20.2492 125.611 20.3057 126.768 20.6219C127.924 20.9382 129.019 21.5216 130.051 22.3722C131.079 23.2154 131.996 24.3345 132.802 25.7295L133.581 27.0802L118.801 35.6136L116.986 32.4693L126.729 26.8443C126.389 26.2729 125.956 25.8388 125.431 25.5419C124.905 25.2451 124.337 25.1055 123.727 25.123C123.12 25.1288 122.518 25.3044 121.92 25.6495C121.315 25.999 120.851 26.4487 120.529 26.9988C120.203 27.5415 120.034 28.1263 120.022 28.7532C120.006 29.3728 120.158 29.9784 120.48 30.57L122.328 33.7696C122.728 34.4634 123.216 34.9935 123.792 35.3599C124.363 35.7189 124.983 35.8974 125.651 35.8955C126.319 35.8936 127 35.6923 127.694 35.2918C128.174 35.0148 128.571 34.6969 128.885 34.3382C129.2 33.9795 129.423 33.59 129.554 33.1698C129.685 32.7495 129.712 32.3107 129.635 31.8533L134.689 29.1272C135.126 30.361 135.233 31.5937 135.009 32.8252C134.788 34.045 134.245 35.2097 133.38 36.3193C132.511 37.4216 131.334 38.4009 129.851 39.2575Z" fill="black"/>
<g filter="url(#filter0_d_828_369)">
<rect x="2" y="1" width="60" height="54" rx="12" fill="#894AD1"/>
</g>
<path d="M9.27557 41V14.8182H19.6051C21.5824 14.8182 23.2699 15.1719 24.6676 15.8793C26.0739 16.5781 27.1435 17.571 27.8764 18.858C28.6179 20.1364 28.9886 21.6406 28.9886 23.3707C28.9886 25.1094 28.6136 26.6051 27.8636 27.858C27.1136 29.1023 26.027 30.0568 24.6037 30.7216C23.1889 31.3864 21.4759 31.7188 19.4645 31.7188H12.5483V27.2699H18.5696C19.6264 27.2699 20.5043 27.125 21.2031 26.8352C21.902 26.5455 22.4219 26.1108 22.7628 25.5312C23.1122 24.9517 23.2869 24.2315 23.2869 23.3707C23.2869 22.5014 23.1122 21.7685 22.7628 21.1719C22.4219 20.5753 21.8977 20.1236 21.1903 19.8168C20.4915 19.5014 19.6094 19.3438 18.544 19.3438H14.8111V41H9.27557ZM23.4148 29.0852L29.9219 41H23.8111L17.4446 29.0852H23.4148ZM32.9006 41V14.8182H38.4361V25.6207H49.6733V14.8182H55.196V41H49.6733V30.1847H38.4361V41H32.9006Z" fill="white"/>
<path d="M78.5483 27.9986V32.8182H66.429V27.9986H78.5483Z" fill="black"/>
<defs>
<filter id="filter0_d_828_369" x="0" y="0" width="66" height="60" filterUnits="userSpaceOnUse" color-interpolation-filters="sRGB">
<feFlood flood-opacity="0" result="BackgroundImageFix"/>
<feColorMatrix in="SourceAlpha" type="matrix" values="0 0 0 0 0 0 0 0 0 0 0 0 0 0 0 0 0 0 127 0" result="hardAlpha"/>
<feMorphology radius="1" operator="dilate" in="SourceAlpha" result="effect1_dropShadow_828_369"/>
<feOffset dx="1" dy="2"/>
<feGaussianBlur stdDeviation="1"/>
<feComposite in2="hardAlpha" operator="out"/>
<feColorMatrix type="matrix" values="0 0 0 0 0 0 0 0 0 0 0 0 0 0 0 0 0 0 0.12 0"/>
<feBlend mode="normal" in2="BackgroundImageFix" result="effect1_dropShadow_828_369"/>
<feBlend mode="normal" in="SourceGraphic" in2="effect1_dropShadow_828_369" result="shape"/>
</filter>
</defs>
</svg>
